<svg width="33" height="29" viewBox="0 0 33 29" fill="none" xmlns="http://www.w3.org/2000/svg">
<path d="M10.5776 19.3335H27.8462C28.2738 19.3335 28.649 19.0475 28.7647 18.6321L32.5882 5.09863C32.6703 4.80687 32.6141 4.49346 32.4331 4.25104C32.2519 4.00937 31.9701 3.86664 31.6695 3.86664H8.37107L7.68781 0.757217C7.59073 0.314416 7.20244 0 6.7544 0H0.955811C0.427626 0 0 0.43248 0 0.96666C0 1.50109 0.427626 1.93332 0.955811 1.93332H5.98726L9.43889 17.6415C8.42334 18.0881 7.71021 19.1104 7.71021 20.3001C7.71021 21.8991 8.99657 23.2001 10.5776 23.2001H27.8462C28.3747 23.2001 28.802 22.7679 28.802 22.2334C28.802 21.6993 28.3747 21.2668 27.8462 21.2668H10.5776C10.0512 21.2668 9.62183 20.8335 9.62183 20.3001C9.62183 19.7667 10.0512 19.3335 10.5776 19.3335Z" fill="white"/>
<path d="M9.62207 26.1002C9.62207 27.6994 10.9084 29.0002 12.4898 29.0002C14.0708 29.0002 15.3572 27.6994 15.3572 26.1002C15.3572 24.5012 14.0708 23.2002 12.4898 23.2002C10.9084 23.2002 9.62207 24.5012 9.62207 26.1002Z" fill="white"/>
<path d="M23.0674 26.1002C23.0674 27.6994 24.3537 29.0002 25.9348 29.0002C27.5161 29.0002 28.8022 27.6994 28.8022 26.1002C28.8022 24.5012 27.5161 23.2002 25.9348 23.2002C24.3537 23.2002 23.0674 24.5012 23.0674 26.1002Z" fill="white"/>
</svg>
