<svg width="18" height="16" viewBox="0 0 18 16" fill="none" xmlns="http://www.w3.org/2000/svg">
<path d="M5.83594 10.6667H15.3634C15.5993 10.6667 15.8063 10.5089 15.8702 10.2798L17.9797 2.81303C18.025 2.65206 17.994 2.47915 17.8941 2.3454C17.7941 2.21207 17.6387 2.13332 17.4728 2.13332H4.61852L4.24155 0.417775C4.18799 0.173471 3.97375 0 3.72656 0H0.527344C0.235931 0 0 0.238609 0 0.533329C0 0.828188 0.235931 1.06666 0.527344 1.06666H3.30331L5.20766 9.73326C4.64735 9.97965 4.25391 10.5437 4.25391 11.2001C4.25391 12.0823 4.96362 12.8 5.83594 12.8H15.3634C15.655 12.8 15.8908 12.5616 15.8908 12.2667C15.8908 11.972 15.655 11.7334 15.3634 11.7334H5.83594C5.54549 11.7334 5.30859 11.4944 5.30859 11.2001C5.30859 10.9058 5.54549 10.6667 5.83594 10.6667Z" fill="white"/>
<path d="M5.30859 14.4C5.30859 15.2824 6.01831 16 6.89076 16C7.76308 16 8.47279 15.2824 8.47279 14.4C8.47279 13.5178 7.76308 12.8 6.89076 12.8C6.01831 12.8 5.30859 13.5178 5.30859 14.4Z" fill="white"/>
<path d="M12.7266 14.4C12.7266 15.2824 13.4363 16 14.3086 16C15.181 16 15.8906 15.2824 15.8906 14.4C15.8906 13.5178 15.181 12.8 14.3086 12.8C13.4363 12.8 12.7266 13.5178 12.7266 14.4Z" fill="white"/>
</svg>
