<svg width="21" height="25" viewBox="0 0 21 25" fill="none" xmlns="http://www.w3.org/2000/svg">
<path d="M7.35938 0V2.08548H9.45964V3.12819C10.1947 3.02393 10.8248 3.02393 11.5599 3.12819V2.08548H13.6602V0H7.35938Z" fill="#079D28"/>
<path d="M17.6505 6.88216L18.3856 6.15226L19.2257 6.98646L20.6959 5.52663L17.5455 2.39844L16.0753 3.85828L16.9154 4.69243L15.9703 5.63088C10.9297 2.60695 4.41891 4.17105 1.47857 9.17615C-1.46176 14.1813 0.113378 20.4376 5.04899 23.4616C9.9846 26.4855 16.4953 24.9214 19.4357 19.9163C22.061 15.6411 21.326 10.2189 17.6505 6.88216ZM10.5096 21.7932C6.41414 21.7932 3.15876 18.5608 3.15876 14.4941C3.15876 10.4275 6.41414 7.19498 10.5096 7.19498V14.4941H17.8605C17.8605 18.5607 14.6051 21.7932 10.5096 21.7932Z" fill="#079D28"/>
</svg>
