<svg width="17" height="17" viewBox="0 0 17 17" fill="none" xmlns="http://www.w3.org/2000/svg">
<path d="M11.9356 0H5.06439C2.27187 0 0 2.27187 0 5.06439V11.9356C0 14.7281 2.27187 17 5.06439 17H11.9356C14.7281 17 17 14.7281 17 11.9356V5.06439C17 2.27187 14.7281 0 11.9356 0ZM15.2898 11.9356C15.2898 13.7881 13.7881 15.2898 11.9356 15.2898H5.06439C3.21194 15.2898 1.7102 13.7881 1.7102 11.9356V5.06439C1.7102 3.21191 3.21194 1.7102 5.06439 1.7102H11.9356C13.7881 1.7102 15.2898 3.21191 15.2898 5.06439V11.9356Z" fill="white"/>
<path d="M8.50032 4.10327C6.07592 4.10327 4.10352 6.07567 4.10352 8.50005C4.10352 10.9244 6.07592 12.8969 8.50032 12.8969C10.9247 12.8969 12.8971 10.9244 12.8971 8.50005C12.8971 6.07564 10.9247 4.10327 8.50032 4.10327ZM8.50032 11.1867C7.01654 11.1867 5.81371 9.98386 5.81371 8.50008C5.81371 7.01629 7.01657 5.81347 8.50032 5.81347C9.9841 5.81347 11.1869 7.01629 11.1869 8.50008C11.1869 9.98383 9.98407 11.1867 8.50032 11.1867Z" fill="white"/>
<path d="M12.9051 5.18977C13.487 5.18977 13.9587 4.71807 13.9587 4.13621C13.9587 3.55434 13.487 3.08264 12.9051 3.08264C12.3233 3.08264 11.8516 3.55434 11.8516 4.13621C11.8516 4.71807 12.3233 5.18977 12.9051 5.18977Z" fill="white"/>
</svg>
