<svg width="21" height="21" viewBox="0 0 21 21" fill="none" xmlns="http://www.w3.org/2000/svg">
<g opacity="0.3">
<path d="M15.3155 0H5.6845C2.55001 0 0 2.55001 0 5.6845V15.3156C0 18.4499 2.55001 21 5.6845 21H15.3156C18.4499 21 21 18.4499 21 15.3156V5.6845C21 2.55001 18.4499 0 15.3155 0V0ZM10.5 16.242C7.33377 16.242 4.75796 13.6662 4.75796 10.5C4.75796 7.33377 7.33377 4.75796 10.5 4.75796C13.6662 4.75796 16.242 7.33377 16.242 10.5C16.242 13.6662 13.6662 16.242 10.5 16.242ZM16.3793 6.11212C15.4436 6.11212 14.6826 5.35109 14.6826 4.41542C14.6826 3.47975 15.4436 2.71856 16.3793 2.71856C17.315 2.71856 18.0762 3.47975 18.0762 4.41542C18.0762 5.35109 17.315 6.11212 16.3793 6.11212Z" fill="black"/>
<path d="M10.4997 5.98914C8.01247 5.98914 5.98877 8.01268 5.98877 10.5C5.98877 12.9873 8.01247 15.011 10.4997 15.011C12.987 15.011 15.0106 12.9873 15.0106 10.5C15.0106 8.01268 12.987 5.98914 10.4997 5.98914Z" fill="black"/>
<path d="M16.3792 3.94983C16.1225 3.94983 15.9136 4.15875 15.9136 4.41542C15.9136 4.67209 16.1225 4.88101 16.3792 4.88101C16.636 4.88101 16.8449 4.67225 16.8449 4.41542C16.8449 4.15859 16.636 3.94983 16.3792 3.94983Z" fill="black"/>
</g>
</svg>
