<svg width="18" height="19" viewBox="0 0 18 19" fill="none" xmlns="http://www.w3.org/2000/svg">
<path d="M17.3606 2.98305C16.9739 2.94779 16.6318 3.23273 16.5966 3.61945L16.5034 4.64141C14.9228 2.15916 12.1791 0.5 8.99996 0.5C5.57992 0.5 2.56594 2.45195 1.06976 5.38159C0.893138 5.72742 1.03032 6.15095 1.37615 6.32757C1.72205 6.5042 2.14551 6.36705 2.32213 6.02118C3.58836 3.54182 6.1311 1.90625 8.99996 1.90625C11.6148 1.90625 13.9745 3.26789 15.3264 5.40106L14.3239 4.68504C14.0079 4.45937 13.5687 4.53256 13.3431 4.84855C13.1174 5.16457 13.1906 5.60367 13.5066 5.82937L16.5467 8.00066C16.9923 8.31829 17.6068 8.02752 17.6556 7.49233L17.997 3.74714C18.0323 3.36038 17.7474 3.01831 17.3606 2.98305Z" fill="#515151"/>
<path d="M16.6238 12.6724C16.2779 12.4959 15.8544 12.633 15.6778 12.9788C14.4116 15.4582 11.8688 17.0938 8.99996 17.0938C6.38514 17.0938 4.02539 15.7321 2.67349 13.599L3.67604 14.315C3.99206 14.5407 4.43116 14.4675 4.65686 14.1515C4.88253 13.8355 4.80934 13.3964 4.49335 13.1706L1.45322 10.9994C1.01309 10.6849 0.393571 10.967 0.344352 11.5077L0.00294988 15.2529C-0.0323118 15.6396 0.25263 15.9817 0.639313 16.0169C1.02652 16.0521 1.36814 15.7669 1.40336 15.3805L1.49653 14.3586C3.07708 16.8409 5.82082 18.5 8.99996 18.5C12.42 18.5 15.434 16.5481 16.9302 13.6184C17.1068 13.2726 16.9696 12.8491 16.6238 12.6724Z" fill="#515151"/>
</svg>
