<svg width="17" height="26" viewBox="0 0 17 26" fill="none" xmlns="http://www.w3.org/2000/svg">
<path d="M8.49533 3.93263C10.2239 3.93263 11.63 5.17885 11.63 6.71092C11.63 8.2417 10.2235 9.48791 8.49533 9.48791C6.76783 9.48791 5.36141 8.2417 5.36141 6.71092C5.36105 5.17852 6.7682 3.93263 8.49533 3.93263ZM8.49533 13.4186C12.6707 13.4186 16.0663 10.41 16.0663 6.71092C16.0663 3.00986 12.6711 0 8.49533 0C4.32028 0 0.924362 3.01018 0.924362 6.71092C0.924362 10.41 4.32028 13.4186 8.49533 13.4186ZM11.5582 18.892C13.1157 18.5776 14.602 18.0322 15.9543 17.2787C16.4522 17.001 16.8052 16.5595 16.9357 16.0512C17.0663 15.5429 16.9637 15.0094 16.6505 14.5682C16.4956 14.3494 16.2935 14.16 16.0559 14.0105C15.8183 13.8611 15.5498 13.7546 15.2657 13.6972C14.9817 13.6398 14.6876 13.6326 14.4004 13.676C14.1132 13.7194 13.8385 13.8126 13.5919 13.9502C10.4903 15.6785 6.49822 15.6772 3.39909 13.9502C3.15259 13.8126 2.87788 13.7194 2.59069 13.6759C2.3035 13.6325 2.00947 13.6397 1.72543 13.6971C1.44138 13.7545 1.17289 13.861 0.935318 14.0104C0.697748 14.1599 0.495763 14.3494 0.340921 14.5682C0.0276048 15.0093 -0.0751838 15.5427 0.0551609 16.051C0.185506 16.5593 0.538309 17.0009 1.03598 17.2787C2.3882 18.0319 3.87422 18.5773 5.43135 18.892L1.19905 22.6438C0.783131 23.0126 0.549528 23.5127 0.54963 24.0341C0.549732 24.5555 0.78353 25.0555 1.19959 25.4242C1.61566 25.7928 2.1799 25.9998 2.7682 25.9998C3.3565 25.9997 3.92067 25.7924 4.33659 25.4237L8.4946 21.7377L12.6552 25.424C12.8609 25.6066 13.1052 25.7515 13.3741 25.8503C13.6431 25.9491 13.9313 26 14.2225 26C14.5136 26 14.8019 25.9491 15.0708 25.8503C15.3398 25.7515 15.5841 25.6066 15.7898 25.424C15.9961 25.2417 16.1598 25.0251 16.2715 24.7866C16.3832 24.5481 16.4407 24.2924 16.4407 24.0342C16.4407 23.776 16.3832 23.5203 16.2715 23.2818C16.1598 23.0434 15.9961 22.8267 15.7898 22.6444L11.5582 18.892Z" fill="black" fill-opacity="0.3"/>
</svg>
