<svg width="18" height="17" viewBox="0 0 18 17" fill="none" xmlns="http://www.w3.org/2000/svg">
<g clip-path="url(#clip0)">
<path d="M9 0C5.51067 0 2.67188 2.63002 2.67188 5.86272C2.67188 6.95494 2.99844 8.02085 3.61649 8.9456L8.63979 16.4452C8.73601 16.5889 8.90553 16.6762 9.08786 16.6762C9.08926 16.6762 9.09063 16.6762 9.09204 16.6762C9.27594 16.6748 9.44582 16.5849 9.54028 16.4387L14.4355 8.86639C15.0195 7.96118 15.3281 6.92254 15.3281 5.86272C15.3281 2.63002 12.4893 0 9 0ZM13.5304 8.36473L9.07987 15.2491L4.5129 8.43079C3.99846 7.66108 3.71953 6.77307 3.71953 5.86272C3.71953 3.1688 6.09223 0.970606 9 0.970606C11.9078 0.970606 14.277 3.1688 14.277 5.86272C14.277 6.74607 14.0164 7.61137 13.5304 8.36473Z" fill="#079D28"/>
<path d="M9 2.9314C7.25534 2.9314 5.83594 4.2464 5.83594 5.86276C5.83594 7.46878 7.23224 8.79412 9 8.79412C10.7896 8.79412 12.1641 7.45113 12.1641 5.86276C12.1641 4.2464 10.7447 2.9314 9 2.9314ZM9 7.82351C7.83081 7.82351 6.88359 6.94303 6.88359 5.86276C6.88359 4.78519 7.83689 3.902 9 3.902C10.1631 3.902 11.1129 4.78519 11.1129 5.86276C11.1129 6.92726 10.1877 7.82351 9 7.82351Z" fill="#079D28"/>
</g>
<defs>
<clipPath id="clip0">
<rect width="18" height="16.6762" fill="white"/>
</clipPath>
</defs>
</svg>
