<svg width="80" height="80" viewBox="0 0 80 80" fill="none" xmlns="http://www.w3.org/2000/svg">
<path d="M60.1443 9.56997C59.7075 8.97716 58.9161 8.76951 58.245 9.07185C57.5736 9.37404 57.2043 10.1037 57.3585 10.8237C58.5868 16.5625 57.9166 22.2939 55.3666 27.8587C55.2799 28.0481 55.1922 28.234 55.1041 28.4165C55.2252 26.5897 55.2216 24.5368 54.9749 22.3653C54.1811 15.3765 50.6325 5.84794 38.2339 0.143101C37.6485 -0.126274 36.9579 -0.00861756 36.4946 0.439351C36.0314 0.88732 35.8907 1.57373 36.1402 2.16779C39.0716 9.14622 38.0932 13.974 32.8686 18.3104C29.5011 21.1054 27.34 24.4965 25.9536 27.6681C24.8816 22.9981 22.3682 16.7897 16.5422 11.32C16.088 10.8936 15.424 10.7778 14.8521 11.0251C14.2804 11.2726 13.9102 11.8361 13.9102 12.459C13.9102 23.5001 11.6304 28.489 9.61895 32.8906C7.91567 36.6179 6.30676 40.1387 6.30676 46.3068C6.30676 47.4553 6.36536 48.6136 6.48067 49.75C6.56786 50.6084 7.33411 51.2343 8.19301 51.1465C9.05161 51.0593 9.67676 50.2926 9.58958 49.4342C9.48473 48.4025 9.43161 47.3503 9.43161 46.3068C9.43161 40.8189 10.8355 37.7468 12.4611 34.1895C14.3568 30.0411 16.4763 25.4029 16.9416 16.2815C20.1397 20.1033 22.2252 24.555 23.1554 29.5586C23.6704 32.3297 23.6971 34.6657 23.6319 36.1186C23.5014 37.1586 23.4793 37.8173 23.4763 37.9267C23.4547 38.7486 24.0738 39.4467 24.8924 39.5234C25.7119 39.599 26.4489 39.0293 26.5807 38.2178C26.5908 38.155 26.6911 37.5164 26.7474 36.4408C27.1708 33.2239 28.7874 25.7593 34.8644 20.7153C38.1557 17.9834 40.0547 14.9828 40.6697 11.5415C41.0439 9.4481 40.9297 7.21326 40.3182 4.77888C47.0716 8.89076 50.9482 14.8742 51.8572 22.6103C52.6571 29.4175 50.7624 35.1203 50.7439 35.1753C50.5061 35.8715 50.7863 36.6393 51.4168 37.0189C52.0471 37.3983 52.8568 37.2865 53.3608 36.7508C53.468 36.6367 56.0136 33.9029 58.1558 29.2734C60.0839 25.1059 61.0629 20.7215 61.0658 16.3442C67.9277 26.7856 70.5685 35.3531 70.5685 46.3072C70.5685 58.8729 62.9461 69.6906 52.0832 74.3837C54.4177 71.6254 55.8279 68.0609 55.8279 64.1728C55.8279 62.0975 55.0969 59.7123 53.6555 57.0834C53.6494 57.0722 53.643 57.0611 53.6366 57.0501C53.313 56.4928 52.9847 55.9345 52.6557 55.3753C49.0919 49.3173 45.7258 43.5953 47.1616 37.4103C47.2927 36.8454 47.1002 36.2543 46.6614 35.875C46.2229 35.4958 45.61 35.3904 45.07 35.6018C39.8966 37.6262 36.2338 42.4428 34.7858 46.6868C31.8127 43.1778 28.1411 42.7326 27.9389 42.7108C27.3886 42.6511 26.8479 42.8903 26.5175 43.3353C26.1872 43.7801 26.1183 44.3692 26.3347 44.8793C26.3602 44.9393 28.8418 50.9503 25.6907 57.4047C25.6877 57.4109 25.6846 57.4172 25.6818 57.4234C24.68 59.5459 24.1721 61.817 24.1721 64.1729C24.1721 68.0836 25.5985 71.6668 27.9572 74.4317C22.1829 71.9701 17.2379 67.7372 13.8382 62.1276C13.391 61.3897 12.43 61.1542 11.6921 61.6012C10.9541 62.0484 10.7185 63.0093 11.1657 63.7473C14.1155 68.6143 18.2807 72.6875 23.2111 75.5262C28.2954 78.4528 34.1008 80 40 80C48.9999 80 57.461 76.4953 63.8249 70.1314C70.1888 63.7676 73.6935 55.3064 73.6935 46.3065C73.6935 32.9345 70.0211 22.9778 60.1443 9.56997ZM27.2974 64.1723C27.2974 62.2843 27.7033 60.4653 28.5038 58.7656C30.8061 54.0429 30.6191 49.5903 30.0877 46.7543C31.5244 47.5965 33.2533 49.1758 34.3386 52.1143C34.6289 52.9004 35.488 53.3176 36.2852 53.0597C37.0827 52.8018 37.5346 51.9607 37.3096 51.1534C36.7185 49.0326 38.945 43.0703 43.7049 39.837C43.5004 45.9745 46.7777 51.5459 49.9622 56.9592C50.2849 57.5078 50.6069 58.0553 50.9246 58.602C52.088 60.7281 52.7029 62.654 52.7029 64.1723C52.7029 71.1767 47.0044 76.875 40.0002 76.875C32.9958 76.875 27.2974 71.1767 27.2974 64.1723Z" fill="#079D28"/>
<path d="M9.54065 58.1218C9.12815 58.1218 8.72659 57.9546 8.43596 57.664C8.14377 57.3734 7.97815 56.9703 7.97815 56.5593C7.97815 56.1484 8.14362 55.7453 8.43596 55.4546C8.72659 55.164 9.12815 54.9968 9.54065 54.9968C9.95159 54.9968 10.3547 55.164 10.6453 55.4546C10.936 55.7453 11.1031 56.1484 11.1031 56.5593C11.1031 56.9703 10.936 57.3734 10.6453 57.664C10.3547 57.9546 9.95159 58.1218 9.54065 58.1218Z" fill="#079D28"/>
</svg>
