<svg width="85" height="85" viewBox="0 0 85 85" fill="none" xmlns="http://www.w3.org/2000/svg">
<path d="M78.5114 37.1875H74.3762C74.1406 36.3348 73.6338 35.582 72.9324 35.0428C72.231 34.5037 71.3732 34.2076 70.4886 34.1992H66.0742V23.4042C66.0792 23.2023 66.0304 23.0026 65.9328 22.8258C65.8352 22.6489 65.6923 22.5012 65.5187 22.3978L34.378 4.41137C34.2025 4.30935 34.0031 4.25562 33.8001 4.25562C33.5971 4.25562 33.3977 4.30935 33.2222 4.41137L2.07188 22.3978C1.89562 22.5 1.74941 22.6468 1.64799 22.8235C1.54656 23.0002 1.49349 23.2005 1.49415 23.4042V59.3773C1.49415 59.5813 1.54785 59.7817 1.64985 59.9584C1.75184 60.135 1.89854 60.2817 2.0752 60.3837L33.2287 78.3702C33.4054 78.4722 33.6058 78.5259 33.8098 78.5259C34.019 78.526 34.2248 78.4724 34.4074 78.3702L50.8008 68.9144V75.7499C50.7991 76.4007 50.9265 77.0454 51.1756 77.6466C51.4248 78.2478 51.7907 78.7937 52.2522 79.2525C52.7137 79.7114 53.2617 80.0741 53.8643 80.3197C54.467 80.5654 55.1124 80.6891 55.7632 80.6836H78.5114C79.1639 80.6897 79.8111 80.5666 80.4158 80.3216C81.0206 80.0766 81.5709 79.7143 82.035 79.2558C82.4992 78.7973 82.8682 78.2514 83.1206 77.6498C83.373 77.0481 83.5039 76.4024 83.5059 75.7499V42.1982C83.5051 40.8723 82.9792 39.6008 82.0432 38.6617C81.1072 37.7227 79.8373 37.1926 78.5114 37.1875ZM70.5299 36.5234C70.9773 36.5234 71.4064 36.7012 71.7227 37.0175C72.0391 37.3339 72.2168 37.7629 72.2168 38.2103V38.3229C72.2168 38.7703 72.0391 39.1993 71.7227 39.5157C71.4064 39.832 70.9773 40.0098 70.5299 40.0098H63.7767C63.3293 40.0098 62.9003 39.832 62.5839 39.5157C62.2676 39.1993 62.0898 38.7703 62.0898 38.3229V38.2103C62.0898 37.7629 62.2676 37.3339 62.5839 37.0175C62.9003 36.7012 63.3293 36.5234 63.7767 36.5234H70.5299ZM33.8098 6.75966L46.7547 14.2334L17.9274 30.8767L4.98263 23.4031L33.8098 6.75966ZM32.7051 75.3508L3.81837 58.7063V25.4145L32.7051 42.0591V75.3508ZM33.8098 40.0463L20.2516 32.2185L49.0789 15.5753L62.6377 23.4031L33.8098 40.0463ZM50.8008 42.1982V66.2308L35.0293 75.3508V42.0591L63.75 25.4145V34.1992H63.786C62.9014 34.2075 62.0435 34.5036 61.3422 35.0428C60.6408 35.5819 60.134 36.3348 59.8984 37.1875H55.7632C54.4407 37.1939 53.1749 37.7254 52.2442 38.6651C51.3136 39.6048 50.7944 40.8757 50.8008 42.1982ZM81.1816 75.7499C81.1801 76.0973 81.1095 76.4409 80.9739 76.7607C80.8384 77.0806 80.6407 77.3703 80.3923 77.6131C80.1438 77.8559 79.8496 78.0469 79.5268 78.175C79.2039 78.3031 78.8588 78.3658 78.5114 78.3594H55.7632C55.4175 78.3652 55.0742 78.3019 54.7534 78.1732C54.4326 78.0445 54.1407 77.8529 53.8949 77.6098C53.6492 77.3668 53.4545 77.077 53.3222 76.7576C53.19 76.4382 53.123 76.0956 53.125 75.7499V42.1982C53.1215 41.8485 53.187 41.5015 53.3177 41.1771C53.4485 40.8528 53.6419 40.5574 53.887 40.3078C54.132 40.0583 54.4238 39.8596 54.7458 39.7229C55.0677 39.5863 55.4134 39.5146 55.7632 39.5117H59.9438C60.193 40.3343 60.7021 41.054 61.3949 41.5628C62.0876 42.0716 62.9266 42.3422 63.786 42.334H70.4886C71.348 42.3422 72.187 42.0716 72.8797 41.5628C73.5724 41.054 74.0815 40.3343 74.3307 39.5117H78.5114C79.2211 39.5162 79.9001 39.8012 80.4004 40.3045C80.9006 40.8078 81.1815 41.4886 81.1816 42.1982V75.7499Z" fill="#079D28"/>
<path d="M57.1009 53.9551H58.3173C58.6255 53.9551 58.9211 53.8326 59.1391 53.6147C59.357 53.3968 59.4794 53.1012 59.4794 52.793C59.4794 52.4848 59.357 52.1892 59.1391 51.9712C58.9211 51.7533 58.6255 51.6309 58.3173 51.6309H58.2715V48.4766H61.4768C61.5497 48.7102 61.6973 48.9135 61.8969 49.0553C62.0964 49.197 62.337 49.2694 62.5816 49.2613C62.8902 49.2622 63.1865 49.1406 63.4056 48.9232C63.6246 48.7058 63.7485 48.4105 63.75 48.1019V47.3199C63.7474 47.0098 63.6226 46.7133 63.4026 46.4947C63.1827 46.2761 62.8854 46.1531 62.5753 46.1523H57.1009C56.9485 46.1531 56.7977 46.184 56.6572 46.2431C56.5166 46.3022 56.3892 46.3885 56.282 46.4969C56.1748 46.6054 56.0901 46.7339 56.0327 46.8751C55.9753 47.0163 55.9462 47.1675 55.9473 47.3199V52.7943C55.9464 52.9464 55.9755 53.0972 56.0331 53.2379C56.0907 53.3787 56.1755 53.5067 56.2827 53.6146C56.3899 53.7225 56.5174 53.8081 56.6578 53.8665C56.7982 53.925 56.9488 53.9551 57.1009 53.9551Z" fill="#079D28"/>
<path d="M57.1094 64.5801H62.5879C62.8961 64.5801 63.1917 64.4576 63.4096 64.2397C63.6276 64.0218 63.75 63.7262 63.75 63.418V57.9395C63.75 57.6312 63.6276 57.3357 63.4096 57.1177C63.1917 56.8998 62.8961 56.7773 62.5879 56.7773H57.1094C56.8012 56.7773 56.5056 56.8998 56.2876 57.1177C56.0697 57.3357 55.9473 57.6312 55.9473 57.9395V63.418C55.9473 63.7262 56.0697 64.0218 56.2876 64.2397C56.5056 64.4576 56.8012 64.5801 57.1094 64.5801ZM58.2715 59.1016H61.4258V62.2559H58.2715V59.1016Z" fill="#079D28"/>
<path d="M58.3176 72.8809H58.2716V69.7266H61.4141C61.4201 70.0322 61.5456 70.3233 61.7638 70.5374C61.9819 70.7515 62.2753 70.8716 62.5809 70.8719C62.8866 70.8722 63.1802 70.7527 63.3988 70.539C63.6174 70.3253 63.7435 70.0345 63.7501 69.7289V68.6091C63.7489 68.2949 63.6257 67.9935 63.4066 67.7683C63.1874 67.5432 62.8894 67.412 62.5754 67.4023H57.101C56.7891 67.4128 56.4938 67.545 56.2781 67.7705C56.0625 67.9961 55.9438 68.2971 55.9473 68.6091V74.0835C55.9472 74.2335 55.9772 74.3821 56.0355 74.5203C56.0938 74.6586 56.1793 74.7837 56.2869 74.8883C56.3945 74.9929 56.522 75.0749 56.6618 75.1293C56.8017 75.1837 56.951 75.2095 57.101 75.2051H58.3176C58.6258 75.2051 58.9213 75.0827 59.1393 74.8647C59.3572 74.6468 59.4797 74.3512 59.4797 74.043C59.4797 73.7348 59.3572 73.4392 59.1393 73.2212C58.9213 73.0033 58.6258 72.8809 58.3176 72.8809Z" fill="#079D28"/>
<path d="M65.2509 47.5788L61.8476 50.9821L60.8123 49.9467C60.7044 49.8388 60.5763 49.7532 60.4353 49.6948C60.2943 49.6364 60.1432 49.6063 59.9905 49.6063C59.8379 49.6063 59.6868 49.6364 59.5458 49.6948C59.4048 49.7532 59.2767 49.8388 59.1688 49.9467C59.0608 50.0546 58.9752 50.1827 58.9168 50.3237C58.8584 50.4647 58.8284 50.6158 58.8284 50.7685C58.8284 50.9211 58.8584 51.0722 58.9168 51.2132C58.9752 51.3542 59.0608 51.4823 59.1688 51.5902L61.026 53.4473C61.1339 53.5552 61.262 53.6408 61.403 53.6992C61.544 53.7576 61.6951 53.7877 61.8478 53.7877C62.0004 53.7877 62.1515 53.7576 62.2925 53.6992C62.4335 53.6408 62.5616 53.5552 62.6695 53.4473L66.895 49.2219C67.1129 49.0039 67.2354 48.7083 67.2354 48.4001C67.2354 48.0919 67.1129 47.7963 66.895 47.5783C66.677 47.3604 66.3814 47.2379 66.0732 47.2379C65.765 47.2379 65.4694 47.3604 65.2514 47.5783L65.2509 47.5788Z" fill="#079D28"/>
<path d="M65.2509 69.0361L61.8476 72.4394L60.8123 71.404C60.7044 71.296 60.5763 71.2104 60.4353 71.152C60.2943 71.0936 60.1432 71.0636 59.9905 71.0636C59.8379 71.0636 59.6868 71.0936 59.5458 71.152C59.4048 71.2104 59.2767 71.296 59.1688 71.404C59.0608 71.5119 58.9752 71.64 58.9168 71.781C58.8584 71.922 58.8284 72.0731 58.8284 72.2257C58.8284 72.3784 58.8584 72.5295 58.9168 72.6705C58.9752 72.8115 59.0608 72.9396 59.1688 73.0475L61.026 74.9046C61.1339 75.0125 61.262 75.0981 61.403 75.1565C61.544 75.2149 61.6951 75.245 61.8478 75.245C62.0004 75.245 62.1515 75.2149 62.2925 75.1565C62.4335 75.0981 62.5616 75.0125 62.6695 74.9046L66.895 70.6791C67.1129 70.4612 67.2354 70.1656 67.2354 69.8574C67.2354 69.5491 67.1129 69.2535 66.895 69.0356C66.677 68.8176 66.3814 68.6952 66.0732 68.6952C65.765 68.6952 65.4694 68.8176 65.2514 69.0356L65.2509 69.0361Z" fill="#079D28"/>
<path d="M77.1736 48.9746H69.8745C69.5663 48.9746 69.2707 49.097 69.0528 49.315C68.8348 49.5329 68.7124 49.8285 68.7124 50.1367C68.7124 50.4449 68.8348 50.7405 69.0528 50.9585C69.2707 51.1764 69.5663 51.2988 69.8745 51.2988H77.1736C77.4818 51.2988 77.7774 51.1764 77.9953 50.9585C78.2132 50.7405 78.3357 50.4449 78.3357 50.1367C78.3357 49.8285 78.2132 49.5329 77.9953 49.315C77.7774 49.097 77.4818 48.9746 77.1736 48.9746Z" fill="#079D28"/>
<path d="M77.1736 59.5996H69.8745C69.5663 59.5996 69.2707 59.722 69.0528 59.94C68.8348 60.1579 68.7124 60.4535 68.7124 60.7617C68.7124 61.0699 68.8348 61.3655 69.0528 61.5835C69.2707 61.8014 69.5663 61.9238 69.8745 61.9238H77.1736C77.4818 61.9238 77.7774 61.8014 77.9953 61.5835C78.2132 61.3655 78.3357 61.0699 78.3357 60.7617C78.3357 60.4535 78.2132 60.1579 77.9953 59.94C77.7774 59.722 77.4818 59.5996 77.1736 59.5996Z" fill="#079D28"/>
<path d="M77.1736 70.2246H69.8745C69.5663 70.2246 69.2707 70.347 69.0528 70.565C68.8348 70.7829 68.7124 71.0785 68.7124 71.3867C68.7124 71.6949 68.8348 71.9905 69.0528 72.2085C69.2707 72.4264 69.5663 72.5488 69.8745 72.5488H77.1736C77.4818 72.5488 77.7774 72.4264 77.9953 72.2085C78.2132 71.9905 78.3357 71.6949 78.3357 71.3867C78.3357 71.0785 78.2132 70.7829 77.9953 70.565C77.7774 70.347 77.4818 70.2246 77.1736 70.2246Z" fill="#079D28"/>
</svg>
