<svg width="80" height="80" viewBox="0 0 80 80" fill="none" xmlns="http://www.w3.org/2000/svg">
<g clip-path="url(#clip0)">
<path d="M35.03 18.137C35.4479 18.137 35.8419 17.9396 36.0916 17.6045C36.342 17.2694 36.4196 16.8366 36.3006 16.4355C35.3509 13.1922 33.7095 10.1936 31.4885 7.64712C29.699 5.74311 27.0355 4.92793 24.4871 5.50438C24.1351 5.63895 23.8576 5.91714 23.723 6.26909C23.6499 6.46706 23.5956 6.6715 23.5613 6.87982C23.5205 7.12696 23.4985 7.37669 23.4946 7.62706V7.64841C23.5108 9.76139 24.3622 11.7825 25.8638 13.2699C28.4102 15.489 31.407 17.1297 34.6483 18.0787C34.7725 18.1156 34.9006 18.1357 35.03 18.137ZM27.7426 11.3937C27.2166 10.8671 26.8038 10.2376 26.5289 9.54531V9.53237C26.4707 9.38551 26.4202 9.238 26.3768 9.09632C26.3542 9.01933 26.338 8.94687 26.3186 8.87117C26.2986 8.79548 26.2811 8.73854 26.2682 8.67255C26.2546 8.60592 26.252 8.57939 26.2429 8.53216C26.2041 8.33419 26.1769 8.13428 26.1621 7.93308C27.4689 8.03206 28.6962 8.59621 29.6227 9.52331C30.9399 11.0126 32.0015 12.7096 32.7643 14.5463C30.9256 13.781 29.2261 12.7154 27.7361 11.3937H27.7426Z" fill="#079D28"/>
<path d="M75.6937 19.0511H55.2413C56.1257 18.4468 56.9564 17.7669 57.723 17.0196C62.4627 12.2657 62.6179 5.05794 59.5902 2.03015C56.5624 -0.997633 49.3571 -0.84495 44.5981 3.89987C42.652 6.01803 41.0708 8.44414 39.9193 11.0799C38.7677 8.4422 37.1852 6.01479 35.2372 3.89599C30.4833 -0.843656 23.2761 -0.998927 20.2477 2.02886C17.2186 5.05664 17.3752 12.2645 22.1155 17.0196C22.8828 17.7669 23.7135 18.4468 24.5972 19.0511H4.1448C3.41309 19.0511 2.81982 19.6444 2.81982 20.3761V33.6259C2.81982 34.3576 3.41309 34.9508 4.1448 34.9508H6.79476V73.3752C6.79929 77.0319 9.76303 79.9956 13.4197 80.0001H66.4188C70.0761 79.9956 73.0399 77.0319 73.0437 73.3752V34.9508H75.6937C76.4254 34.9508 77.0187 34.3576 77.0187 33.6259V20.3761C77.0187 19.6444 76.4254 19.0511 75.6937 19.0511ZM46.473 5.77218C50.281 1.97581 55.8352 2.0198 57.7178 3.90246C59.6005 5.78512 59.6458 11.3367 55.8494 15.146C54.111 16.7531 52.1261 18.0709 49.9705 19.0511H42.0529C42.0529 19.0233 42.0529 18.9929 42.0529 18.965C42.0529 18.6629 42.0303 18.3569 42.0012 18.0489C41.9902 17.9474 41.9785 17.8464 41.9669 17.7429C41.9365 17.4887 41.899 17.2351 41.8537 16.9827C41.8394 16.8941 41.8246 16.8048 41.809 16.7175C41.7456 16.3875 41.6764 16.0628 41.5968 15.749C41.5865 15.7037 41.5742 15.6642 41.5638 15.6164C41.4933 15.3421 41.4209 15.0865 41.3465 14.8219C41.3361 14.7857 41.3264 14.7462 41.316 14.71C42.4016 11.4079 44.1575 8.36456 46.473 5.77218ZM45.2192 32.3009H34.6193V21.701H45.2192V32.3009ZM23.9904 15.1473C20.1934 11.338 20.238 5.78642 22.1213 3.90246C24.004 2.01851 29.5556 1.97451 33.3623 5.7683C35.7729 8.46872 37.5798 11.6531 38.6622 15.1079C38.8117 15.573 38.9268 16.0194 39.0355 16.4529C39.0659 16.5771 39.0911 16.6974 39.1177 16.8197C39.1895 17.1432 39.2471 17.4518 39.2904 17.7475C39.3046 17.8477 39.3234 17.9513 39.335 18.0489C39.3771 18.3795 39.3997 18.7127 39.403 19.0459H29.868C27.7137 18.0677 25.7294 16.7518 23.9904 15.1473ZM5.46978 21.701H31.9694V32.3009H5.46978V21.701ZM9.44472 73.3752V34.9508H34.6193V77.3502H13.4197C11.2245 77.3502 9.44472 75.5704 9.44472 73.3752ZM37.2693 77.3502V34.9508H42.5692V77.3502H37.2693ZM70.3938 73.3752C70.3938 75.5704 68.6146 77.3502 66.4188 77.3502H45.2192V34.9508H70.3938V73.3752ZM74.3687 32.3009H47.8691V21.701H74.3687V32.3009Z" fill="#079D28"/>
<path d="M44.8043 18.1408C44.9318 18.1408 45.0586 18.1227 45.1808 18.0864C48.426 17.138 51.426 15.4941 53.9718 13.2685C55.857 11.4654 56.6696 8.81288 56.1184 6.2632C55.9851 5.91255 55.7076 5.63565 55.3569 5.50173C52.8072 4.95051 50.1547 5.7631 48.3516 7.64835C46.1267 10.1941 44.4828 13.1941 43.5337 16.4393C43.4153 16.8404 43.4923 17.2739 43.7427 17.6083C43.993 17.9435 44.3864 18.1408 44.8043 18.1408ZM50.2252 9.52195C51.153 8.5955 52.3815 8.032 53.6884 7.93172C53.5894 9.23923 53.0253 10.4685 52.0988 11.3962C50.6082 12.7225 48.9061 13.79 47.0635 14.5553C47.8295 12.7128 48.8983 11.0119 50.2252 9.52195Z" fill="#079D28"/>
</g>
<defs>
<clipPath id="clip0">
<rect width="80" height="80" fill="white"/>
</clipPath>
</defs>
</svg>
