<svg width="80" height="80" viewBox="0 0 80 80" fill="none" xmlns="http://www.w3.org/2000/svg">
<g clip-path="url(#clip0)">
<path d="M70.6199 27.8595C71.2672 27.8595 71.7919 27.335 71.7919 26.6876V15.3668C71.7919 13.0521 69.9876 11.1468 67.684 11.0291C53.7857 10.3214 46.3159 4.63755 43.1004 1.31256C42.2819 0.466115 41.1808 0 39.9998 0C38.8188 0 37.7177 0.466115 36.8995 1.3124C33.6838 4.6374 26.2139 10.3212 12.3153 11.0291C10.0121 11.1468 8.20776 13.052 8.20776 15.3668V48.0403C8.20776 57.4502 13.2706 66.2191 21.421 70.9249L34.6793 78.5782C36.3204 79.5262 38.1599 80.0002 40 80.0002C41.8396 80.0002 43.6797 79.5262 45.3204 78.5784L58.5789 70.9251C66.729 66.2192 71.792 57.4504 71.792 48.0404V32.1569C71.792 31.5095 71.2673 30.985 70.6201 30.985C69.9729 30.985 69.4482 31.5095 69.4482 32.1569V48.0404C69.4482 56.6157 64.8342 64.6068 57.407 68.8953L44.1483 76.5488C41.5896 78.0268 38.4102 78.0266 35.8512 76.5486L22.5928 68.8953C15.1656 64.6068 10.5516 56.6157 10.5516 48.0404V15.3668C10.5516 14.3011 11.3788 13.4239 12.4347 13.37C27.1361 12.6213 35.1285 6.51514 38.5844 2.94185C38.9571 2.55636 39.4598 2.34401 39.9998 2.34401C40.5398 2.34401 41.0425 2.55636 41.4153 2.94201C44.871 6.51514 52.8634 12.6213 67.5646 13.37C68.6208 13.424 69.448 14.3011 69.448 15.3668V26.6876C69.448 27.335 69.9727 27.8595 70.6199 27.8595Z" fill="#079D28"/>
<path d="M15.6939 30.9847C15.0467 30.9847 14.522 31.5093 14.522 32.1566V48.0401C14.522 55.2011 18.3748 61.875 24.5771 65.4573L37.836 73.111C38.4941 73.4905 39.2423 73.6911 39.9997 73.6911C40.7571 73.6911 41.5052 73.4905 42.1638 73.1106L55.4226 65.4572C61.6247 61.875 65.4776 55.2011 65.4776 48.0401V19.6857C65.4776 18.3022 64.4452 17.1299 63.0768 16.9588C52.5656 15.6367 45.6509 11.6434 41.6996 8.52509C40.6988 7.73771 39.3007 7.73771 38.2987 8.52618C34.3488 11.6434 27.434 15.6367 16.9238 16.9586C15.5547 17.1299 14.5221 18.3022 14.5221 19.6857V26.6876C14.5221 27.335 15.0468 27.8596 15.6941 27.8596C16.3413 27.8596 16.866 27.335 16.866 26.6876V19.6857C16.866 19.4817 17.0157 19.3092 17.2154 19.2843C28.2615 17.8949 35.5671 13.6678 39.7494 10.3674C39.8966 10.2513 40.1025 10.2511 40.2489 10.3663C44.4324 13.6678 51.738 17.895 62.7852 19.2845C62.9838 19.3092 63.1337 19.4818 63.1337 19.6857V48.0401C63.1337 54.3667 59.7298 60.2629 54.2506 63.4276L40.9927 71.0807C40.3875 71.4298 39.6119 71.4295 39.0076 71.081L25.7494 63.4277C20.27 60.2629 16.866 54.3668 16.866 48.0401V32.1566C16.8658 31.5093 16.3413 30.9847 15.6939 30.9847Z" fill="#079D28"/>
<path d="M25.7936 37.2501C26.7454 37.2501 27.64 37.6206 28.3128 38.2934L34.4365 44.4155C34.8943 44.8734 35.6361 44.8731 36.0938 44.4155L42.8019 37.7074C43.2596 37.2496 43.2596 36.5077 42.8019 36.05C42.3442 35.5925 41.6021 35.5925 41.1446 36.05L35.2651 41.9297L29.9702 36.6361C28.8548 35.5206 27.3717 34.9064 25.7938 34.9064C24.2159 34.9064 22.7327 35.5208 21.6173 36.636C20.5012 37.7523 19.8865 39.2359 19.8865 40.8138C19.8865 42.3922 20.5013 43.8755 21.6173 44.9906L31.0873 54.4605C32.202 55.5771 33.6857 56.192 35.2653 56.192C36.8438 56.192 38.327 55.577 39.441 54.4613L58.382 35.52C59.4984 34.4045 60.1133 32.9211 60.1133 31.3431C60.1133 29.765 59.4986 28.2814 58.3824 27.1652C57.2671 26.0499 55.7839 25.4358 54.206 25.4358C52.6281 25.4358 51.1449 26.05 50.0296 27.1652L45.0121 32.1825C44.5545 32.6403 44.5545 33.3822 45.0121 33.8399C45.4698 34.2974 46.2119 34.2974 46.6694 33.8399L51.6868 28.8225C52.3595 28.1498 53.2541 27.7795 54.206 27.7795C55.1578 27.7795 56.0523 28.1498 56.7252 28.8227C57.3986 29.4961 57.7696 30.3912 57.7696 31.3431C57.7696 32.2948 57.3988 33.1893 56.7252 33.8623L37.7829 52.8047C37.111 53.4777 36.2169 53.8483 35.2653 53.8483C34.3126 53.8483 33.4179 53.4777 32.7453 52.8039L23.2743 43.3328C22.6011 42.6602 22.2303 41.7656 22.2303 40.8138C22.2303 39.8619 22.6013 38.9669 23.2748 38.2934C23.9473 37.6206 24.8419 37.2501 25.7936 37.2501Z" fill="#079D28"/>
</g>
<defs>
<clipPath id="clip0">
<rect width="80" height="80" fill="white"/>
</clipPath>
</defs>
</svg>
