<svg width="27" height="16" viewBox="0 0 27 16" fill="none" xmlns="http://www.w3.org/2000/svg">
<path d="M22.0743 8.83182C21.6437 8.29231 21.7684 8.05307 22.0743 7.57131C22.0793 7.56636 25.6306 2.69756 25.9947 1.04602L25.9964 1.04438C26.1793 0.442169 25.9964 0 25.1169 0H22.2073C21.4675 0 21.125 0.379474 20.9437 0.803493C20.9437 0.803493 19.4624 4.32104 17.3675 6.60118C16.6908 7.25948 16.3799 7.47232 16.0092 7.47232C15.8263 7.47232 15.5453 7.26113 15.5453 6.65892V1.04438C15.5453 0.323377 15.3375 0 14.7256 0H10.1518C9.68796 0 9.41197 0.336576 9.41197 0.650054C9.41197 1.3331 10.4594 1.49149 10.5675 3.41691V7.59441C10.5675 8.50844 10.3995 8.67673 10.0288 8.67673C9.04121 8.67673 6.64042 5.14433 5.21889 1.10377C4.93293 0.320078 4.65029 0.00165055 3.90544 0.00165055H0.997559C0.167923 0.00165055 0 0.381123 0 0.805142C0 1.55584 0.987584 5.28457 4.59708 10.2128C7.00286 13.5769 10.3896 15.4 13.4704 15.4C15.3225 15.4 15.5486 14.9958 15.5486 14.2979C15.5486 11.0839 15.3807 10.7803 16.3084 10.7803C16.739 10.7803 17.4789 10.9915 19.208 12.6133C21.1832 14.5388 21.509 15.4 22.6147 15.4H25.5242C26.3538 15.4 26.7745 14.9958 26.5317 14.1972C25.9798 12.5193 22.2422 9.0628 22.0743 8.83182Z" fill="black" fill-opacity="0.3"/>
</svg>
