<svg width="23" height="14" viewBox="0 0 23 14" fill="none" xmlns="http://www.w3.org/2000/svg">
<path d="M19.0859 8.028C18.714 7.538 18.8204 7.32 19.0859 6.882C19.0907 6.877 22.1603 2.451 22.4766 0.95L22.4785 0.949C22.6357 0.402 22.4785 0 21.7185 0H19.2037C18.5636 0 18.2684 0.345 18.1103 0.731C18.1103 0.731 16.8299 3.929 15.0186 6.002C14.434 6.601 14.1637 6.793 13.8446 6.793C13.6874 6.793 13.443 6.601 13.443 6.054V0.949C13.443 0.293 13.2638 0 12.7338 0H8.7796C8.37804 0 8.13941 0.306 8.13941 0.591C8.13941 1.213 9.04506 1.356 9.13898 3.106V6.903C9.13898 7.735 8.99427 7.888 8.67322 7.888C7.81835 7.888 5.74349 4.677 4.51391 1.002C4.26569 0.289 4.02322 0.000999928 3.37824 0.000999928H0.86253C0.144713 0.000999928 0 0.346 0 0.732C0 1.414 0.854863 4.805 3.9753 9.285C6.05496 12.343 8.98373 14 11.648 14C13.2494 14 13.4449 13.632 13.4449 12.999C13.4449 10.077 13.3002 9.801 14.1024 9.801C14.4742 9.801 15.1144 9.993 16.6094 11.468C18.3182 13.217 18.599 14 19.5555 14H22.0702C22.7871 14 23.1503 13.632 22.9414 12.906C22.4632 11.379 19.2315 8.238 19.0859 8.028Z" fill="white"/>
</svg>
