<svg width="132" height="77" viewBox="0 0 132 77" fill="none" xmlns="http://www.w3.org/2000/svg">
<path d="M31.7847 75.787H34.0595L35.725 72.2743H41.0293L42.6581 75.787H44.9521L38.445 62.7534L31.7847 75.787ZM36.3472 70.9932L38.4099 66.6635L40.4247 70.9932H36.3472Z" fill="url(#paint0_linear)"/>
<path d="M26.3877 63.4099H25.7975H24.3186H23.7284L18.4432 68.1783V63.4099H17.8513H16.9053H16.3135V75.787H16.9053H17.8513H18.4432V70.4528L18.515 70.3876L23.8927 75.787H24.4845H26.016H26.6079L19.9077 69.1717L26.3877 63.4099Z" fill="url(#paint1_linear)"/>
<path d="M61.648 63.4099H61.0561H59.5789H58.987L53.7018 68.1783V63.4099H53.1116H52.164H51.5737V75.787H52.164H53.1116H53.7018V70.4528L53.7752 70.3876L59.1529 75.787H59.7432H61.2762H61.8665L55.1663 69.1717L61.648 63.4099Z" fill="url(#paint2_linear)"/>
<path d="M67.7085 63.4099H67.1167V64.691H67.7085H70.4492V75.787H71.0395H71.9855H72.5773V64.691H75.3547H75.945V63.4099H75.3547H67.7085Z" fill="url(#paint3_linear)"/>
<path d="M92.2027 63.4099H91.6109L88.0853 70.8168L83.7078 63.4099H83.1175H81.878H81.2861L86.9989 72.98L85.5695 75.787H86.1613H87.2366H87.8268L93.9049 63.4099H93.3146H92.2027Z" fill="url(#paint4_linear)"/>
<path d="M107.291 64.4813C107.554 64.4813 107.822 64.494 108.088 64.5115C109.425 64.6501 110.681 65.2148 111.67 66.1216V64.4113C110.453 63.5972 109.016 63.1734 107.551 63.197C107.46 63.197 107.369 63.197 107.278 63.197C107.187 63.197 107.066 63.197 106.959 63.197C103.006 63.197 99.7642 66.1025 99.7642 69.647C99.7642 73.1613 103.06 76.0048 106.959 76.0048C107.059 76.0048 107.16 76.0048 107.259 76.0048C107.358 76.0048 107.453 76.0048 107.551 76.0048C109.012 75.9985 110.442 75.5755 111.67 74.7857V73.0786C110.665 73.9796 109.402 74.5439 108.058 74.6919C107.816 74.7047 107.579 74.7126 107.339 74.7158C104.317 74.6379 101.894 72.2776 101.894 69.5993C101.894 66.9211 104.29 64.5639 107.291 64.4813Z" fill="url(#paint5_linear)"/>
<path d="M46.5071 31.6304C46.7121 31.7597 46.8829 31.9364 47.0049 32.1454C46.9707 32.2112 46.9434 32.2805 46.9235 32.352C46.9155 32.3854 46.9235 32.3933 46.9123 32.3377C46.901 32.3048 46.8831 32.2745 46.8597 32.2487C46.8405 32.2264 46.8278 32.2232 46.8358 32.2264L46.9028 32.2582L47.0384 32.3075L47.3175 32.406L47.5967 32.5062C47.6302 32.7144 47.6685 32.9194 47.6908 33.1864C47.5402 33.3577 47.3764 33.5172 47.2011 33.6633L46.9012 33.5377L46.5981 33.428C46.5454 33.409 46.5007 33.3947 46.4385 33.3692C46.3649 33.3405 46.2935 33.3065 46.2248 33.2675C46.1259 33.2107 46.0361 33.1394 45.9583 33.0561C45.8653 32.9539 45.7951 32.833 45.7526 32.7017C45.69 32.4989 45.6839 32.283 45.735 32.077C45.7717 31.9022 45.8355 31.7845 45.8547 31.6987C46.074 31.6995 46.2928 31.6766 46.5071 31.6304Z" fill="url(#paint6_linear)"/>
<path d="M54.7501 30.214C54.6988 30.1123 54.6698 30.0009 54.6648 29.8872C54.6599 29.7735 54.6791 29.6601 54.7214 29.5544C54.824 29.5187 54.9317 29.4994 55.0404 29.4971H55.2079C55.2351 29.4971 55.2303 29.4971 55.2079 29.4971L55.176 29.5114C55.176 29.5114 55.1665 29.5114 55.1633 29.5114L55.1489 29.5226C55.1302 29.5394 55.1126 29.5574 55.0963 29.5766L55.0723 29.6068L55.058 29.6259L55.0468 29.6434C55.0381 29.6559 55.0307 29.6692 55.0245 29.6831V29.6688L55.0452 29.6084L55.1425 29.2905C55.1776 29.1761 55.2111 29.0616 55.259 28.9265C55.2718 28.8916 55.2845 28.8566 55.3037 28.8137C55.3228 28.7708 55.3228 28.7676 55.3372 28.739C55.3591 28.6967 55.3836 28.6559 55.4105 28.6166L55.4536 28.5625L55.4664 28.5482L55.4935 28.5212L55.5525 28.4719L55.5844 28.4497L55.6004 28.4386L55.6355 28.4179C55.6907 28.389 55.7498 28.3681 55.811 28.3559C55.8413 28.3559 55.8732 28.3464 55.9019 28.3432H55.87L55.9131 28.3337L56.0582 28.2892C56.0869 28.2892 56.0981 28.2335 56.1412 28.2717L56.2576 28.3496C56.3374 28.4004 56.4172 28.4513 56.5001 28.5085C56.5894 28.5688 56.6717 28.6386 56.7458 28.7167C56.7011 28.8137 56.682 28.9202 56.6501 29.0092C56.6182 29.0982 56.5911 29.192 56.5576 29.2778L56.5081 29.4081C56.4953 29.4653 56.4507 29.4256 56.4236 29.4431C56.3645 29.4622 56.3055 29.4812 56.2337 29.5003L56.1779 29.5146L56.1061 29.5305L56.0646 29.5385L55.988 29.548H55.9689C55.9689 29.548 55.9561 29.548 55.9689 29.548C55.9979 29.5465 56.0267 29.5428 56.055 29.5369C56.1107 29.5249 56.1644 29.5051 56.2146 29.4781L56.2465 29.459L56.2608 29.451L56.288 29.432L56.3374 29.3891L56.3709 29.3557C56.3805 29.343 56.3916 29.3302 56.3996 29.3175C56.4115 29.3034 56.4217 29.288 56.4299 29.2714L56.4108 29.3223C56.3805 29.4065 56.3486 29.5146 56.3167 29.6227L56.2098 29.9692L56.1747 30.0741L56.1492 30.1409L56.1284 30.187C56.1189 30.206 56.1109 30.2235 56.0854 30.2664L56.0678 30.2919L56.0518 30.3157L56.0231 30.3491C56.005 30.3717 55.9847 30.3924 55.9625 30.4111L55.945 30.427L55.9035 30.4572C55.877 30.4786 55.8487 30.4977 55.8189 30.5144C55.7587 30.5506 55.6952 30.581 55.6291 30.605C55.5197 30.6415 55.406 30.6634 55.2909 30.6702C55.2 30.6702 55.1425 30.6702 55.109 30.6702C55.0755 30.6702 55.0707 30.6797 55.0867 30.6702C55.0345 30.4821 54.9147 30.3197 54.7501 30.214Z" fill="url(#paint7_linear)"/>
<path d="M56.4189 39.3041C56.3598 39.2782 56.3058 39.2422 56.2593 39.1976C56.2216 39.1552 56.1904 39.1076 56.1668 39.0561C56.1144 38.9463 56.0867 38.8264 56.0854 38.7048C56.2006 38.6108 56.3327 38.5396 56.4747 38.495C56.6706 38.4441 56.8752 38.436 57.0745 38.4712L57.4191 38.522L57.5898 38.5475L57.6313 38.8479L57.652 39.0068L57.6696 39.1833L57.601 39.3422L57.5372 39.4789L57.4079 39.7539L57.2388 39.7284L56.9038 39.6792C56.8097 39.6617 56.773 39.6792 56.8209 39.6649C56.8527 39.6528 56.8832 39.6373 56.9118 39.6188C56.8661 39.5313 56.8005 39.4557 56.7204 39.3978C56.68 39.3702 56.636 39.3482 56.5896 39.3327C56.5345 39.3143 56.4769 39.3047 56.4189 39.3041Z" fill="url(#paint8_linear)"/>
<path d="M52.3511 48.0621C52.468 47.9278 52.5932 47.8009 52.726 47.6822L52.8169 47.5948C52.8472 47.5678 52.8807 47.5249 52.8999 47.5487C52.9161 47.566 52.9384 47.5762 52.9621 47.5773L53.0291 47.5932L53.2971 47.6536C53.388 47.6759 53.4566 47.6902 53.589 47.7251C53.75 47.7677 53.9015 47.8399 54.0357 47.9381C54.1318 48.0097 54.2135 48.0987 54.2766 48.2004C54.3327 48.291 54.3747 48.3896 54.401 48.4929C54.4409 48.6518 54.4473 48.7535 54.4568 48.7837C54.4568 48.7837 54.4568 48.7837 54.4696 48.7837C54.4501 48.7851 54.4308 48.7889 54.4122 48.7949C54.3538 48.8092 54.2963 48.8267 54.2399 48.8473C54.1833 48.868 54.1324 48.9017 54.0915 48.9459C54.0438 48.9979 54.0137 49.0635 54.0054 49.1334C53.9525 49.1898 53.8834 49.2287 53.8076 49.2447C53.73 49.2565 53.6509 49.2533 53.5747 49.2351C53.4963 49.2173 53.4195 49.1934 53.3449 49.1636C53.3114 49.1509 53.2604 49.135 53.2668 49.1112C53.2741 49.09 53.2741 49.0671 53.2668 49.046C53.2365 48.8982 53.2285 48.8171 53.2221 48.7996C53.2272 48.8142 53.2342 48.8281 53.2428 48.8409C53.2574 48.8653 53.2764 48.8869 53.2987 48.9045C53.3274 48.9236 53.2987 48.9045 53.2508 48.8918C53.203 48.8791 53.0913 48.8537 53.0099 48.8346L52.7435 48.7726L52.6765 48.7583C52.6538 48.7503 52.629 48.7503 52.6063 48.7583C52.5792 48.7726 52.5696 48.7201 52.5553 48.682L52.5138 48.5644C52.4494 48.4004 52.395 48.2327 52.3511 48.0621Z" fill="url(#paint9_linear)"/>
<path d="M46.4896 41.3482L46.4721 41.5326L46.4498 41.6915L46.4035 41.9967C46.3338 42.0037 46.2645 42.0148 46.1961 42.0301L45.7845 42.1111L45.5787 42.1509L45.4734 42.1715C45.432 42.1715 45.3841 42.189 45.3331 42.1954C45.2035 42.2144 45.0718 42.2144 44.9422 42.1954C44.8758 42.0884 44.8288 41.9705 44.8034 41.8473C44.7947 41.7893 44.7947 41.7304 44.8034 41.6724C44.8154 41.6117 44.8381 41.5536 44.8704 41.5008C44.9238 41.476 44.9724 41.4421 45.014 41.4006C45.0472 41.3647 45.0746 41.324 45.0954 41.2798C45.1339 41.1904 45.1545 41.0942 45.156 40.9969C45.1304 40.9969 45.156 40.9969 45.1831 40.9969L45.2485 40.9858L45.3506 40.9667L45.5548 40.9254L45.9664 40.8459C46.0358 40.8345 46.1045 40.8191 46.1722 40.7998L46.3317 41.0637L46.4115 41.1972L46.4896 41.3482Z" fill="url(#paint10_linear)"/>
<path d="M63.1064 28.5865C63.2998 28.4442 63.4798 28.2846 63.6441 28.1097C63.6948 28.1293 63.75 28.1348 63.8036 28.1256C63.8164 28.1256 63.794 28.1399 63.8164 28.1144C63.8618 28.0456 63.8972 27.9706 63.9216 27.8919L64.0652 27.4946L64.137 27.2911L64.1561 27.2402C64.1726 27.1893 64.1945 27.1403 64.2216 27.094C64.2517 27.0407 64.2887 26.9916 64.3316 26.9478C64.3902 26.8879 64.4595 26.8394 64.5358 26.8047C64.6472 26.7545 64.7699 26.7342 64.8916 26.7459C64.9358 26.7484 64.9796 26.7554 65.0224 26.7666C65.0552 26.7728 65.0877 26.7808 65.1197 26.7904C65.181 26.8079 65.2407 26.8302 65.2984 26.8572C65.353 26.8813 65.4063 26.9083 65.4579 26.9382C65.4811 26.9541 65.5057 26.968 65.5313 26.9796C65.5584 26.9875 65.5871 26.9923 65.5951 27.0288C65.647 27.2876 65.6338 27.5552 65.5568 27.8077C65.3224 27.8465 65.0939 27.9155 64.8772 28.0127C64.8549 28.0286 64.8565 28.0127 64.8533 27.9984C64.8501 27.9841 64.8389 27.9873 64.8341 27.9841L64.8006 27.965L64.7767 27.9571H64.7687C64.7687 27.9571 64.7528 27.9571 64.7943 27.9571C64.8799 27.9643 64.9658 27.9483 65.0431 27.911C65.1029 27.8843 65.1571 27.8466 65.2027 27.7997C65.2334 27.7687 65.2602 27.734 65.2824 27.6964C65.3095 27.6456 65.3111 27.6297 65.3048 27.6487L65.2872 27.6996L65.2138 27.903L65.0671 28.3147C64.9998 28.5092 64.9036 28.6924 64.7815 28.8583C64.6098 29.0841 64.3644 29.2432 64.0876 29.3081C63.858 29.3544 63.6215 29.3544 63.392 29.3081C63.2402 29.0938 63.1423 28.8463 63.1064 28.5865Z" fill="url(#paint11_linear)"/>
<path d="M62.6484 19.2214C62.926 19.1848 63.127 19.1658 63.3376 19.1292C63.3918 19.2092 63.4544 19.2832 63.5242 19.3501C63.5795 19.4077 63.6392 19.4609 63.7029 19.5091C63.7173 19.5202 63.7328 19.5298 63.7492 19.5377C63.7587 19.5377 63.7492 19.5377 63.7492 19.5377C63.7387 19.5354 63.7278 19.5354 63.7173 19.5377C63.6881 19.5443 63.6609 19.5573 63.6375 19.5758C63.5912 19.6188 63.6279 19.5917 63.6853 19.4789C63.7282 19.403 63.7756 19.3297 63.8273 19.2595C63.865 19.2111 63.906 19.1655 63.9502 19.1228C63.9741 19.099 64.0044 19.0799 64.0299 19.0529C64.0396 19.0351 64.0536 19.02 64.0706 19.0089C64.0875 18.9978 64.107 18.9911 64.1272 18.9893C64.2171 18.9816 64.3077 18.9917 64.3936 19.019C64.4796 19.0462 64.5593 19.0902 64.6282 19.1483C64.689 19.1993 64.7366 19.2642 64.7669 19.3374C64.7943 19.4047 64.7943 19.4799 64.7669 19.5472C64.7373 19.5529 64.7093 19.5652 64.685 19.5831C64.6607 19.6009 64.6408 19.624 64.6266 19.6505C64.6082 19.6842 64.5969 19.7213 64.5935 19.7594C64.5901 19.7976 64.5946 19.836 64.6067 19.8724C64.6188 19.9088 64.6383 19.9422 64.664 19.9708C64.6896 19.9993 64.7209 20.0223 64.7558 20.0384C64.8292 19.9859 64.7973 19.9907 64.7558 20.0829C64.6669 20.2629 64.5401 20.4218 64.3841 20.5486C64.2654 20.6375 64.1288 20.6999 63.9837 20.7314C63.8573 20.7581 63.7272 20.7629 63.5992 20.7457C63.4832 20.7301 63.3699 20.6985 63.2626 20.6519C63.1711 20.6115 63.084 20.562 63.0026 20.5041C62.8772 20.4123 62.7603 20.3096 62.6532 20.1973C62.5543 20.0988 62.4697 19.9891 62.374 19.8794C62.4286 19.6465 62.5213 19.4242 62.6484 19.2214Z" fill="url(#paint12_linear)"/>
<path d="M64.2168 6.32764C64.4497 6.53586 64.614 6.73454 64.799 6.86487C64.7901 6.97296 64.8059 7.08165 64.8453 7.18277C64.8688 7.24536 64.9091 7.30033 64.9618 7.34171L64.9873 7.35602C64.9873 7.35602 64.9729 7.35602 65.0256 7.35602C65.0782 7.35602 65.1644 7.31628 65.2968 7.28767C65.372 7.27209 65.4482 7.262 65.5249 7.25747C65.5987 7.25264 65.6728 7.25264 65.7466 7.25747C65.8682 7.26836 65.9887 7.28855 66.1072 7.31787L66.2555 7.35443C66.3429 7.37453 66.4275 7.40494 66.5076 7.44503C66.5704 7.47612 66.6293 7.51454 66.6831 7.55947C66.7399 7.60606 66.7908 7.65944 66.8346 7.71841C66.8893 7.79615 66.9338 7.88055 66.967 7.96955C66.9878 8.02359 67.0085 8.07763 67.0261 8.12849C67.0332 8.1563 67.0428 8.18342 67.0548 8.20956C67.0707 8.2334 67.0931 8.25724 67.0755 8.29221C66.9653 8.56267 66.7926 8.80339 66.5714 8.99475C66.3612 8.8433 66.1355 8.71437 65.8982 8.6101C65.8695 8.60056 65.8775 8.5799 65.8806 8.56083C65.8781 8.54401 65.8738 8.5275 65.8679 8.51155C65.8567 8.47817 65.844 8.4448 65.8328 8.4146C65.8216 8.3844 65.8184 8.38758 65.8408 8.4146C65.8571 8.43771 65.8764 8.45856 65.8982 8.47659C65.9167 8.49229 65.937 8.50564 65.9588 8.51632C65.9875 8.53063 65.9827 8.51632 65.9588 8.51632L65.8376 8.48612C65.7773 8.4712 65.7159 8.46057 65.6541 8.45433C65.6366 8.45289 65.619 8.45289 65.6015 8.45433H65.5552C65.5073 8.46387 65.4212 8.49089 65.2904 8.52109C65.1227 8.55858 64.9494 8.56344 64.7799 8.5354C64.6089 8.5027 64.4462 8.43622 64.3013 8.33989C64.0477 8.16922 63.8497 7.92832 63.7318 7.64689C63.6352 7.40353 63.5813 7.14548 63.5723 6.88395C63.7458 6.65578 63.9654 6.46628 64.2168 6.32764Z" fill="url(#paint13_linear)"/>
<path d="M68.8957 0C69.1052 0.108863 69.3063 0.233187 69.4972 0.371933C69.4796 0.486375 69.4844 0.602405 69.4764 0.716846L69.4621 1.06335C69.4606 1.08982 69.4606 1.11635 69.4621 1.14282C69.4548 1.10009 69.4373 1.05973 69.411 1.0252C69.3922 0.996868 69.3684 0.972109 69.3408 0.952086L69.4764 1.02202L69.7859 1.18097L70.0954 1.33991C70.1197 1.57221 70.1293 1.80579 70.1241 2.03928C69.9361 2.17861 69.7395 2.30602 69.5354 2.42075L69.226 2.2618L68.9181 2.10285L68.7442 2.01226C68.6114 1.9417 68.4968 1.84162 68.4092 1.71979C68.3201 1.58852 68.2653 1.4372 68.2496 1.27951C68.243 1.19063 68.243 1.10137 68.2496 1.01249L68.264 0.665983C68.264 0.551542 68.2799 0.435512 68.2735 0.319481C68.473 0.198311 68.6809 0.0915438 68.8957 0V0Z" fill="url(#paint14_linear)"/>
<path d="M76.095 3.0471C76.1131 3.02189 76.1251 2.99277 76.1298 2.96212C76.1345 2.93146 76.1319 2.90013 76.1221 2.87067C76.1066 2.81987 76.0846 2.77126 76.0567 2.72603C76.0296 2.67834 76.0073 2.64496 75.9849 2.59569C75.9626 2.54642 75.9435 2.49873 75.9243 2.45582C75.9879 2.39025 76.0417 2.31583 76.0838 2.23488C76.1832 2.04238 76.2634 1.84061 76.3231 1.63248L76.4141 1.27167L76.4699 1.08094C76.4816 1.03614 76.496 0.992083 76.513 0.949011C76.5457 0.858701 76.5931 0.774387 76.6534 0.699466C76.7333 0.604323 76.8336 0.528276 76.9469 0.476942C77.0093 0.4485 77.0738 0.425113 77.1399 0.407005L77.2357 0.381574C77.2515 0.379385 77.2667 0.373975 77.2803 0.36568C77.2947 0.354553 77.3059 0.337069 77.3282 0.356143C77.5154 0.506954 77.6928 0.669403 77.8594 0.842517C77.8047 1.07652 77.7338 1.30648 77.6472 1.53075C77.6393 1.55936 77.6201 1.54983 77.6026 1.54665C77.5862 1.54736 77.5701 1.55058 77.5547 1.55618L77.4638 1.58003C77.443 1.58003 77.4446 1.58797 77.475 1.58003C77.5274 1.55402 77.5736 1.51717 77.6106 1.47194C77.6823 1.37022 77.66 1.36704 77.6441 1.44015L77.5914 1.61817L77.4797 1.99805C77.3957 2.28214 77.2841 2.55737 77.1463 2.8198C77.0648 2.96468 76.9742 3.1043 76.8751 3.23783C76.8145 3.23783 76.7491 3.23783 76.6885 3.23783C76.6189 3.24197 76.5491 3.24197 76.4795 3.23783C76.4018 3.23387 76.3251 3.21943 76.2514 3.19492C76.1823 3.16718 76.1264 3.11434 76.095 3.0471Z" fill="url(#paint15_linear)"/>
<path d="M78.9346 13.0812L79.0526 12.9127C79.0893 12.8634 79.126 12.8126 79.1595 12.7633C79.193 12.714 79.2249 12.6727 79.2536 12.6266L79.2951 12.5567C79.3095 12.5312 79.3206 12.5106 79.3286 12.5249C79.3366 12.5392 79.3605 12.5376 79.3749 12.5439H79.4179C79.4397 12.5458 79.4616 12.5458 79.4833 12.5439C79.5043 12.5421 79.5248 12.5367 79.544 12.5281L79.5344 12.536C79.5264 12.5455 79.5264 12.5471 79.544 12.5185L79.6269 12.3739L79.662 12.3198L79.6828 12.2896L79.6939 12.2737L79.7163 12.2451C79.7756 12.174 79.8456 12.1124 79.9236 12.0623C80.04 11.9894 80.1704 11.9417 80.3065 11.9225C80.3999 11.908 80.4945 11.9032 80.5889 11.9082C80.6702 11.9082 80.7484 11.9225 80.817 11.9336C80.8513 11.943 80.8867 11.9478 80.9223 11.9479C80.9638 11.9225 80.9829 11.9972 81.0052 12.0401C81.0974 12.237 81.1515 12.4495 81.1648 12.6663C81.0072 12.7985 80.859 12.9414 80.7213 13.0939C80.6942 13.1241 80.6607 13.1861 80.6511 13.1495C80.6415 13.113 80.6176 13.1384 80.6016 13.1336C80.5742 13.1282 80.5465 13.1245 80.5187 13.1225H80.4868C80.5185 13.1175 80.5486 13.105 80.5745 13.086C80.6076 13.064 80.6372 13.0372 80.6622 13.0065L80.6718 12.9938L80.6638 13.0049L80.5921 13.1336C80.5426 13.2188 80.4837 13.2983 80.4166 13.3705C80.3415 13.4494 80.2555 13.5174 80.1613 13.5723C79.9979 13.6675 79.8165 13.7281 79.6285 13.7503C79.5454 13.7597 79.4617 13.7629 79.3781 13.7599C79.3398 13.7599 79.3015 13.7599 79.2648 13.7599C79.2281 13.7599 79.193 13.7424 79.1563 13.7599C79.1196 13.7774 79.1228 13.7472 79.1101 13.717L79.075 13.6359C79.0526 13.5803 79.0319 13.5278 79.0143 13.477C78.9968 13.4261 78.9808 13.3546 78.9665 13.2942L78.9346 13.0812Z" fill="url(#paint16_linear)"/>
<path d="M78.8549 22.9741C79.134 22.9598 79.351 22.9741 79.5217 22.8931C79.5408 22.8851 79.5329 22.8931 79.5217 22.9058C79.5105 22.9185 79.5217 22.9058 79.5217 22.9153C79.569 22.9312 79.6186 22.9392 79.6685 22.9392L80.0194 22.9519C80.3288 22.9717 80.6318 23.0488 80.9128 23.1792C81.0525 23.2444 81.186 23.322 81.3116 23.4112C81.3373 23.6559 81.3068 23.9033 81.2223 24.1345C81.0064 24.1996 80.7987 24.2892 80.6033 24.4015C80.5389 24.355 80.4699 24.3151 80.3975 24.2823C80.254 24.2157 80.0992 24.1764 79.9413 24.1662L79.5919 24.1535C79.4082 24.1454 79.2271 24.1072 79.0559 24.0407C78.9485 23.9969 78.8481 23.9381 78.7575 23.8658C78.7137 23.832 78.6726 23.7948 78.6347 23.7546C78.6177 23.735 78.599 23.7169 78.5789 23.7005C78.5565 23.6878 78.5278 23.6767 78.531 23.6449C78.5686 23.3939 78.6815 23.1601 78.8549 22.9741Z" fill="url(#paint17_linear)"/>
<path d="M79.7642 33.7235C79.6988 33.7235 79.635 33.7235 79.5728 33.7346C79.5106 33.7457 79.4659 33.7346 79.4132 33.7457C79.3096 33.7559 79.2068 33.7729 79.1054 33.7966C79.0739 33.7382 79.0341 33.6847 78.9873 33.6376C78.9434 33.5856 78.8948 33.5377 78.8421 33.4946C78.8134 33.4675 78.7959 33.458 78.8214 33.4739C78.842 33.4844 78.8633 33.4935 78.8852 33.5009C78.9102 33.5074 78.9359 33.5111 78.9618 33.5121C79.0511 33.5121 79.008 33.5025 78.9139 33.5438C78.7418 33.6175 78.5555 33.6523 78.3683 33.6456C78.2369 33.6368 78.1088 33.6011 77.9918 33.5407C77.9409 33.5153 77.8924 33.4855 77.8467 33.4517C77.8273 33.435 77.8064 33.4202 77.7844 33.4071C77.7621 33.4071 77.735 33.3913 77.7334 33.3579C77.7347 33.2362 77.7574 33.1157 77.8004 33.0018C77.8211 32.9478 77.8419 32.8969 77.8674 32.8429C77.8929 32.7888 77.9312 32.7348 77.9647 32.6839C78.0269 32.6728 78.0876 32.6585 78.1466 32.6442C78.2004 32.6345 78.2537 32.6217 78.3061 32.6061C78.4036 32.5801 78.4941 32.5329 78.5709 32.4678C78.5885 32.4503 78.5805 32.4678 78.5709 32.4678C78.5614 32.4678 78.5709 32.4678 78.5709 32.4678L78.5534 32.4566C78.5235 32.4418 78.491 32.4331 78.4577 32.4312C78.3747 32.4312 78.3986 32.4423 78.4832 32.4058C78.5263 32.3899 78.5853 32.3661 78.6682 32.3406C78.777 32.3086 78.8899 32.2931 79.0033 32.2945C79.151 32.3 79.2953 32.3403 79.4244 32.4121C79.5009 32.4586 79.5729 32.5118 79.6398 32.5711C79.737 32.6547 79.8281 32.745 79.9126 32.8413C80.0003 32.9367 80.0721 33.0448 80.1487 33.1449C80.1032 33.2499 80.0499 33.3514 79.9892 33.4485C79.9588 33.4962 79.9285 33.5438 79.8966 33.5899C79.8647 33.636 79.7993 33.6774 79.7642 33.7235Z" fill="url(#paint18_linear)"/>
<path d="M72.9267 41.0701C72.9698 41.024 73.0113 40.9764 73.0496 40.9287L73.1517 40.8142C73.2171 40.7348 73.2777 40.6553 73.3303 40.571C73.3775 40.5928 73.4274 40.6083 73.4787 40.6171C73.6831 40.6617 73.8948 40.6617 74.0993 40.6171C74.1495 40.6049 74.199 40.5901 74.2476 40.5726C74.3046 40.6561 74.3664 40.7363 74.4327 40.8126C74.4662 40.8508 74.4997 40.8873 74.5364 40.9255C74.5731 40.9636 74.6161 41.0145 74.6592 41.059C74.6672 41.1178 74.6751 41.1782 74.6799 41.2386C74.6847 41.299 74.6799 41.3435 74.6799 41.3976C74.6799 41.5025 74.6688 41.609 74.656 41.7155C74.5635 41.7472 74.4694 41.7743 74.3752 41.7981C74.1859 41.8423 73.9922 41.8652 73.7977 41.8665C73.6046 41.8657 73.4121 41.8444 73.2234 41.8029L73.0815 41.7679L73.0113 41.7472C72.9985 41.7472 72.9889 41.7361 72.9746 41.7472C72.9602 41.7584 72.9443 41.7616 72.9395 41.7377C72.9231 41.6324 72.913 41.5263 72.9092 41.4198C72.9092 41.3658 72.9092 41.3133 72.9092 41.2609C72.9092 41.2084 72.9188 41.1305 72.9267 41.0701Z" fill="url(#paint19_linear)"/>
<path d="M66.4165 43.5353C66.5377 43.3514 66.6333 43.152 66.7005 42.9424C66.7612 42.9464 66.8222 42.94 66.8807 42.9234C67.0035 42.8894 67.1187 42.8328 67.2205 42.7565C67.3464 42.6616 67.46 42.5517 67.5587 42.429C67.613 42.3655 67.6704 42.2908 67.7183 42.2224C67.8124 42.2526 67.8921 42.2892 67.9895 42.321C68.0383 42.3374 68.0895 42.346 68.141 42.3464C68.2016 42.349 68.261 42.3298 68.3085 42.2923C68.3753 42.3077 68.4363 42.3419 68.484 42.3909C68.5296 42.444 68.5672 42.5034 68.5957 42.5673C68.6422 42.6854 68.6806 42.8064 68.7105 42.9297C68.6387 43.0283 68.5717 43.1157 68.4936 43.2095C68.3317 43.4059 68.1469 43.5825 67.9432 43.7356C67.7137 43.9054 67.4538 44.03 67.1775 44.1027C67.0357 44.1352 66.8917 44.1575 66.7467 44.1695C66.5832 43.9903 66.4693 43.7717 66.4165 43.5353Z" fill="url(#paint20_linear)"/>
<path d="M64.4497 35.0046C64.4673 34.9443 64.4881 34.8848 64.5119 34.8266C64.5343 34.7773 64.5582 34.7281 64.5837 34.6804C64.6356 34.5839 64.6931 34.4905 64.756 34.4006C64.8629 34.4245 64.9698 34.4308 65.0751 34.4579C65.2848 34.5036 65.4883 34.574 65.6813 34.6677C65.8742 34.7607 66.0553 34.8765 66.2205 35.0126C66.3037 35.0818 66.3826 35.1561 66.4566 35.2351C66.4254 35.3393 66.3859 35.4408 66.3385 35.5387L66.2667 35.6833L66.1726 35.8423L66.0003 35.9027L65.8504 35.9504C65.7524 35.9818 65.6574 36.0217 65.5664 36.0696C65.5273 36.0274 65.4858 35.9876 65.442 35.9504C65.3513 35.8765 65.2523 35.8136 65.1468 35.7628C65.0408 35.711 64.9288 35.672 64.8134 35.6468C64.7573 35.6316 64.6993 35.6241 64.6411 35.6245C64.6204 35.5292 64.5965 35.429 64.5646 35.3289C64.5486 35.2796 64.5311 35.2319 64.5119 35.1826C64.4928 35.1334 64.472 35.0634 64.4497 35.0046Z" fill="url(#paint21_linear)"/>
<path d="M0 56.6467C2.92448 57.6138 5.90316 58.4099 8.92083 59.0308C9.67221 59.1898 10.43 59.3201 11.1861 59.4584C11.9423 59.5967 12.7032 59.7032 13.4658 59.8001C14.9877 60.0052 16.516 60.1594 18.0474 60.242C21.106 60.4249 24.1748 60.3345 27.2171 59.9718C30.2471 59.6138 33.2308 58.9388 36.1188 57.958C38.9929 56.9797 41.733 55.6475 44.2755 53.9923C45.5366 53.1653 46.7371 52.2501 47.8681 51.2536C48.996 50.266 50.0402 49.1873 50.9901 48.0286C51.9353 46.8837 52.7572 45.6429 53.442 44.3268C54.1189 43.0457 54.5797 41.6624 54.806 40.2323C54.8379 40.0591 54.8443 39.8842 54.8634 39.711C54.8826 39.5377 54.8778 39.3661 54.8873 39.1912C54.8873 38.8161 54.8873 38.4394 54.873 38.0659C54.8523 37.3157 54.8076 36.5686 54.7326 35.8311C54.662 35.1002 54.5507 34.3737 54.3992 33.6551C54.2553 32.9687 54.0415 32.2987 53.7611 31.6556C53.4899 31.05 53.123 30.5271 52.721 30.2585C52.5311 30.1266 52.3123 30.0421 52.0828 30.0121C52.0241 30.004 51.965 29.9993 51.9058 29.9978C51.8596 29.9944 51.8132 29.9944 51.767 29.9978C51.6739 30.0095 51.5831 30.0347 51.4974 30.0725C51.2735 30.1788 51.0717 30.326 50.9023 30.5064C50.6894 30.7288 50.5011 30.9734 50.3408 31.236C49.9869 31.8234 49.6996 32.4482 49.4841 33.0988C49.0347 34.4794 48.7441 35.9063 48.6179 37.3522C48.4761 38.8214 48.45 40.2993 48.5397 41.7725C48.562 42.1397 48.5908 42.5132 48.6243 42.874C48.6578 43.2348 48.7056 43.5845 48.7631 43.9389C49.1111 46.0629 49.8644 48.1008 50.9821 49.9423C51.7171 51.1544 52.6204 52.2567 53.6654 53.2166C54.689 54.1626 55.8687 54.9256 57.1527 55.472C58.4224 56.0025 59.7818 56.2873 61.1584 56.3113C62.5001 56.3468 63.8322 56.0778 65.0541 55.5245C66.2888 54.9402 67.3966 54.1205 68.3149 53.1117C69.2783 52.0572 70.1126 50.8925 70.8003 49.6419C72.2233 47.1067 73.2395 44.2854 74.0292 41.4006C74.4264 39.9573 74.7598 38.4903 75.0517 37.0121C75.3437 35.5339 75.5941 34.0461 75.8015 32.5489C76.2179 29.5543 76.4859 26.5312 76.5992 23.5112C76.7172 20.461 76.789 17.414 76.6901 14.3988C76.6391 12.892 76.5401 11.3947 76.3631 9.92609C76.186 8.45743 75.9212 7.01102 75.4665 5.70608C75.2602 5.08906 74.9744 4.50135 74.6162 3.95767C74.4573 3.72539 74.2721 3.51206 74.0643 3.32189C73.8809 3.15426 73.6727 3.01593 73.4469 2.91181C73.2252 2.80939 72.988 2.74439 72.745 2.71948C72.6129 2.70822 72.4802 2.70504 72.3477 2.70994C72.216 2.71579 72.0849 2.73066 71.9553 2.75445C71.4274 2.85879 70.9407 3.11201 70.553 3.48401C70.0949 3.92273 69.7112 4.43271 69.4172 4.994C69.0866 5.61078 68.8086 6.25412 68.5861 6.91724C68.1267 8.31452 67.7789 9.74578 67.5459 11.1977C67.0466 14.1477 66.836 17.1851 66.71 20.2242C66.6478 21.7453 66.6159 23.2712 66.6063 24.7971C66.5967 26.323 66.6494 27.817 66.7658 29.3286C66.9703 32.3328 67.4867 35.3077 68.3069 38.2057C69.1203 41.0924 70.3394 43.8499 71.9282 46.3962C73.5258 48.933 75.5388 51.1852 77.8834 53.0592C79.059 53.9953 80.306 54.8387 81.6131 55.5817C82.9273 56.3253 84.2925 56.9754 85.6987 57.5272C88.5379 58.6206 91.4903 59.3962 94.5014 59.8399C96.0106 60.0704 97.5325 60.2341 99.0576 60.3406C100.583 60.4471 102.116 60.4995 103.649 60.4995C106.72 60.4933 109.79 60.3208 112.842 59.9829C118.959 59.3201 125.019 58.1312 131.003 56.6451C128.039 57.4923 125.05 58.2584 122.033 58.918C120.525 59.2486 119.011 59.5527 117.493 59.8303C115.974 60.108 114.446 60.3506 112.909 60.5583C109.841 60.9818 106.753 61.2386 103.657 61.3276C100.548 61.4195 97.4367 61.2686 94.3515 60.8762C91.2455 60.4895 88.1924 59.7592 85.2488 58.6987C82.2789 57.6275 79.4906 56.1106 76.9804 54.2005C74.4688 52.2631 72.3002 49.9207 70.5642 47.2704C68.8448 44.6189 67.5091 41.7391 66.5967 38.716C65.689 35.7121 65.0962 32.6227 64.8276 29.4971C64.6856 27.9394 64.617 26.3754 64.5963 24.8209C64.5755 23.2664 64.5532 21.7278 64.5723 20.1781C64.5915 18.6284 64.6441 17.0755 64.743 15.5194C64.8419 13.9633 64.9887 12.4041 65.2216 10.8416C65.4375 9.25277 65.787 7.68481 66.2665 6.1543C66.5201 5.35555 66.8403 4.57932 67.2237 3.83369C67.6327 3.02509 68.1716 2.28848 68.819 1.65295C69.1772 1.31213 69.5776 1.01835 70.0106 0.778751C70.4605 0.533357 70.9443 0.355537 71.4464 0.25105C71.6953 0.200529 71.9474 0.167072 72.201 0.150914C72.4533 0.134266 72.7064 0.134266 72.9587 0.150914C73.4895 0.189008 74.0103 0.314697 74.4998 0.522848C74.9797 0.731789 75.4238 1.01444 75.8159 1.36049C76.1789 1.68472 76.5033 2.04951 76.7826 2.44768C77.2848 3.17979 77.6871 3.97512 77.9791 4.8128C78.555 6.40226 78.8485 8.00125 79.0639 9.58118C79.2792 11.1611 79.3829 12.7315 79.4483 14.2955C79.5744 17.422 79.5217 20.523 79.4228 23.6113C79.3111 26.733 79.0453 29.8399 78.6252 32.9319C78.2158 36.0424 77.5987 39.1222 76.7778 42.1508C75.9355 45.1835 74.8635 48.1907 73.2682 51.0247C72.4602 52.4646 71.4829 53.8033 70.3568 55.0127C69.1848 56.2756 67.7756 57.2973 66.2091 58.02C65.4089 58.3818 64.5688 58.6485 63.7061 58.8147C62.8466 58.9714 61.9726 59.0348 61.0994 59.0038C59.3842 58.9539 57.6942 58.5802 56.1189 57.9023C54.565 57.2246 53.1398 56.2852 51.9058 55.1255C50.6913 53.9863 49.6489 52.6779 48.8109 51.2409C47.9781 49.8208 47.3305 48.3007 46.8838 46.7173C46.6624 45.9266 46.4908 45.1229 46.3701 44.3109C46.3111 43.9056 46.2632 43.4971 46.2313 43.0886C46.1994 42.6801 46.1771 42.2938 46.1627 41.8917C46.098 40.2946 46.1593 38.6949 46.3462 37.1074C46.5254 35.4927 46.8888 33.9036 47.4294 32.3708C47.7164 31.5677 48.0954 30.8002 48.5589 30.0836C48.811 29.6964 49.1046 29.3377 49.4347 29.0139C49.8074 28.6453 50.2492 28.3532 50.7348 28.154C51.0065 28.0465 51.2924 27.9785 51.5835 27.9521C51.7301 27.9419 51.8772 27.9419 52.0238 27.9521C52.1546 27.9601 52.2886 27.976 52.421 27.9967C52.9569 28.0875 53.4646 28.3001 53.9047 28.6181C54.3074 28.9153 54.6565 29.2787 54.9368 29.6926C55.1894 30.0674 55.4032 30.4669 55.5749 30.8847C55.8891 31.6611 56.1186 32.469 56.2593 33.2943C56.3995 34.0831 56.4959 34.8791 56.548 35.6785C56.6023 36.4732 56.6246 37.268 56.6198 38.0468C56.6198 38.441 56.6124 38.8336 56.5975 39.2246C56.5847 39.4344 56.5784 39.6474 56.5576 39.8604C56.5369 40.0734 56.5161 40.2784 56.4778 40.4834C56.1975 42.0908 55.6519 43.6408 54.8634 45.0706C54.1044 46.4697 53.2003 47.7855 52.1658 48.9966C50.1049 51.3914 47.6831 53.4526 44.987 55.1065C42.3191 56.7533 39.4559 58.063 36.4634 59.0054C33.487 59.941 30.4189 60.5574 27.3113 60.8444C24.2155 61.1252 21.1006 61.1279 18.0044 60.8524C16.4601 60.7252 14.9223 60.5249 13.3956 60.2738C12.6299 60.1562 11.8721 60.0036 11.1128 59.859C10.3534 59.7143 9.59883 59.5411 8.84904 59.3535C5.84675 58.6317 2.89156 57.7278 0 56.6467H0Z" fill="url(#paint22_linear)"/>
<defs>
<linearGradient id="paint0_linear" x1="16.7986" y1="65.9498" x2="108.324" y2="82.6521" gradientUnits="userSpaceOnUse">
<stop stop-color="#9FA986"/>
<stop offset="0.13" stop-color="#979243"/>
<stop offset="0.33" stop-color="#87BAB6"/>
<stop offset="0.6" stop-color="#D7D39C"/>
<stop offset="0.87" stop-color="#6E7B74"/>
<stop offset="0.98" stop-color="#7B7B4F"/>
</linearGradient>
<linearGradient id="paint1_linear" x1="1068.09" y1="5411.81" x2="7034.57" y2="6314.08" gradientUnits="userSpaceOnUse">
<stop stop-color="#9FA986"/>
<stop offset="0.13" stop-color="#979243"/>
<stop offset="0.33" stop-color="#87BAB6"/>
<stop offset="0.6" stop-color="#D7D39C"/>
<stop offset="0.87" stop-color="#6E7B74"/>
<stop offset="0.98" stop-color="#7B7B4F"/>
</linearGradient>
<linearGradient id="paint2_linear" x1="1175.96" y1="4930.34" x2="7141.55" y2="5832.34" gradientUnits="userSpaceOnUse">
<stop stop-color="#9FA986"/>
<stop offset="0.13" stop-color="#979243"/>
<stop offset="0.33" stop-color="#87BAB6"/>
<stop offset="0.6" stop-color="#D7D39C"/>
<stop offset="0.87" stop-color="#6E7B74"/>
<stop offset="0.98" stop-color="#7B7B4F"/>
</linearGradient>
<linearGradient id="paint3_linear" x1="1060.91" y1="4703.84" x2="6208.1" y2="5371.36" gradientUnits="userSpaceOnUse">
<stop stop-color="#9FA986"/>
<stop offset="0.13" stop-color="#979243"/>
<stop offset="0.33" stop-color="#87BAB6"/>
<stop offset="0.6" stop-color="#D7D39C"/>
<stop offset="0.87" stop-color="#6E7B74"/>
<stop offset="0.98" stop-color="#7B7B4F"/>
</linearGradient>
<linearGradient id="paint4_linear" x1="1543.67" y1="4477.96" x2="8775.95" y2="5818.61" gradientUnits="userSpaceOnUse">
<stop stop-color="#9FA986"/>
<stop offset="0.13" stop-color="#979243"/>
<stop offset="0.33" stop-color="#87BAB6"/>
<stop offset="0.6" stop-color="#D7D39C"/>
<stop offset="0.87" stop-color="#6E7B74"/>
<stop offset="0.98" stop-color="#7B7B4F"/>
</linearGradient>
<linearGradient id="paint5_linear" x1="1521.29" y1="4383.98" x2="8383.45" y2="5543.67" gradientUnits="userSpaceOnUse">
<stop stop-color="#9FA986"/>
<stop offset="0.13" stop-color="#979243"/>
<stop offset="0.33" stop-color="#87BAB6"/>
<stop offset="0.6" stop-color="#D7D39C"/>
<stop offset="0.87" stop-color="#6E7B74"/>
<stop offset="0.98" stop-color="#7B7B4F"/>
</linearGradient>
<linearGradient id="paint6_linear" x1="47.3622" y1="31.961" x2="46.012" y2="33.1246" gradientUnits="userSpaceOnUse">
<stop offset="0.11" stop-color="#979243"/>
<stop offset="0.49" stop-color="#84958B"/>
<stop offset="0.76" stop-color="#6E7B74"/>
<stop offset="0.98" stop-color="#7B7B4F"/>
</linearGradient>
<linearGradient id="paint7_linear" x1="791.308" y1="453.95" x2="768.124" y2="490.765" gradientUnits="userSpaceOnUse">
<stop offset="0.11" stop-color="#979243"/>
<stop offset="0.49" stop-color="#84958B"/>
<stop offset="0.76" stop-color="#6E7B74"/>
<stop offset="0.98" stop-color="#7B7B4F"/>
</linearGradient>
<linearGradient id="paint8_linear" x1="624.671" y1="352.7" x2="619.238" y2="364.872" gradientUnits="userSpaceOnUse">
<stop offset="0.11" stop-color="#979243"/>
<stop offset="0.49" stop-color="#84958B"/>
<stop offset="0.76" stop-color="#6E7B74"/>
<stop offset="0.98" stop-color="#7B7B4F"/>
</linearGradient>
<linearGradient id="paint9_linear" x1="766.341" y1="561.513" x2="758.741" y2="578.859" gradientUnits="userSpaceOnUse">
<stop offset="0.11" stop-color="#979243"/>
<stop offset="0.49" stop-color="#84958B"/>
<stop offset="0.76" stop-color="#6E7B74"/>
<stop offset="0.98" stop-color="#7B7B4F"/>
</linearGradient>
<linearGradient id="paint10_linear" x1="533.364" y1="401.192" x2="528.387" y2="417.256" gradientUnits="userSpaceOnUse">
<stop offset="0.11" stop-color="#979243"/>
<stop offset="0.49" stop-color="#84958B"/>
<stop offset="0.76" stop-color="#6E7B74"/>
<stop offset="0.98" stop-color="#7B7B4F"/>
</linearGradient>
<linearGradient id="paint11_linear" x1="1092.3" y1="464.656" x2="1065.74" y2="509.227" gradientUnits="userSpaceOnUse">
<stop offset="0.11" stop-color="#979243"/>
<stop offset="0.49" stop-color="#84958B"/>
<stop offset="0.76" stop-color="#6E7B74"/>
<stop offset="0.98" stop-color="#7B7B4F"/>
</linearGradient>
<linearGradient id="paint12_linear" x1="1040.41" y1="225.726" x2="1029.68" y2="251.246" gradientUnits="userSpaceOnUse">
<stop offset="0.11" stop-color="#979243"/>
<stop offset="0.49" stop-color="#84958B"/>
<stop offset="0.76" stop-color="#6E7B74"/>
<stop offset="0.98" stop-color="#7B7B4F"/>
</linearGradient>
<linearGradient id="paint13_linear" x1="1509.52" y1="122.24" x2="1495.54" y2="154.117" gradientUnits="userSpaceOnUse">
<stop offset="0.11" stop-color="#979243"/>
<stop offset="0.49" stop-color="#84958B"/>
<stop offset="0.76" stop-color="#6E7B74"/>
<stop offset="0.98" stop-color="#7B7B4F"/>
</linearGradient>
<linearGradient id="paint14_linear" x1="890.866" y1="2.73549" x2="873.175" y2="26.5457" gradientUnits="userSpaceOnUse">
<stop offset="0.11" stop-color="#979243"/>
<stop offset="0.49" stop-color="#84958B"/>
<stop offset="0.76" stop-color="#6E7B74"/>
<stop offset="0.98" stop-color="#7B7B4F"/>
</linearGradient>
<linearGradient id="paint15_linear" x1="1019.06" y1="5.58453" x2="979.72" y2="51.1721" gradientUnits="userSpaceOnUse">
<stop offset="0.11" stop-color="#979243"/>
<stop offset="0.49" stop-color="#84958B"/>
<stop offset="0.76" stop-color="#6E7B74"/>
<stop offset="0.98" stop-color="#7B7B4F"/>
</linearGradient>
<linearGradient id="paint16_linear" x1="1207.41" y1="148.917" x2="1193.4" y2="178" gradientUnits="userSpaceOnUse">
<stop offset="0.11" stop-color="#979243"/>
<stop offset="0.49" stop-color="#84958B"/>
<stop offset="0.76" stop-color="#6E7B74"/>
<stop offset="0.98" stop-color="#7B7B4F"/>
</linearGradient>
<linearGradient id="paint17_linear" x1="1484.98" y1="240.514" x2="1479.69" y2="257.437" gradientUnits="userSpaceOnUse">
<stop offset="0.11" stop-color="#979243"/>
<stop offset="0.49" stop-color="#84958B"/>
<stop offset="0.76" stop-color="#6E7B74"/>
<stop offset="0.98" stop-color="#7B7B4F"/>
</linearGradient>
<linearGradient id="paint18_linear" x1="1279.24" y1="338.265" x2="1273.38" y2="354.585" gradientUnits="userSpaceOnUse">
<stop offset="0.11" stop-color="#979243"/>
<stop offset="0.49" stop-color="#84958B"/>
<stop offset="0.76" stop-color="#6E7B74"/>
<stop offset="0.98" stop-color="#7B7B4F"/>
</linearGradient>
<linearGradient id="paint19_linear" x1="898.912" y1="370.421" x2="892.771" y2="384.956" gradientUnits="userSpaceOnUse">
<stop offset="0.11" stop-color="#979243"/>
<stop offset="0.49" stop-color="#84958B"/>
<stop offset="0.76" stop-color="#6E7B74"/>
<stop offset="0.98" stop-color="#7B7B4F"/>
</linearGradient>
<linearGradient id="paint20_linear" x1="1049.24" y1="554.658" x2="1032.42" y2="588.972" gradientUnits="userSpaceOnUse">
<stop offset="0.11" stop-color="#979243"/>
<stop offset="0.49" stop-color="#84958B"/>
<stop offset="0.76" stop-color="#6E7B74"/>
<stop offset="0.98" stop-color="#7B7B4F"/>
</linearGradient>
<linearGradient id="paint21_linear" x1="891.138" y1="398.544" x2="884.386" y2="412.613" gradientUnits="userSpaceOnUse">
<stop offset="0.11" stop-color="#979243"/>
<stop offset="0.49" stop-color="#84958B"/>
<stop offset="0.76" stop-color="#6E7B74"/>
<stop offset="0.98" stop-color="#7B7B4F"/>
</linearGradient>
<linearGradient id="paint22_linear" x1="-0.473799" y1="30.7385" x2="131.368" y2="30.7385" gradientUnits="userSpaceOnUse">
<stop stop-color="#9FA986"/>
<stop offset="0.16" stop-color="#979243"/>
<stop offset="0.35" stop-color="#84958B"/>
<stop offset="0.46" stop-color="#87BAB6"/>
<stop offset="0.61" stop-color="#D7D39C"/>
<stop offset="0.76" stop-color="#6E7B74"/>
<stop offset="0.98" stop-color="#7B7B4F"/>
</linearGradient>
</defs>
</svg>
